<svg width="550" height="499" viewBox="0 0 550 499" fill="none" xmlns="http://www.w3.org/2000/svg">
<g opacity="0.15" clip-path="url(#clip0_2933_14469)">
<path d="M548.126 99.0201C548.126 180.711 481.676 247.154 399.987 247.154L150.474 247.154C68.7853 247.154 2.33506 180.711 2.33507 99.0201C2.33508 17.3289 68.7853 -49.1139 150.474 -49.1139L399.987 -49.1139C481.676 -49.1139 548.126 17.329 548.126 99.0201ZM48.0759 99.0201C48.0758 155.189 94.4161 200.909 151.373 200.909L398.538 200.909C455.496 200.909 501.836 155.214 501.836 99.0201C501.836 42.8262 455.496 -2.86886 398.538 -2.86887L151.373 -2.86889C94.4161 -2.8689 48.0759 42.8262 48.0759 99.0201ZM550 99.0201C550 16.1791 482.825 -50.9887 399.987 -50.9887L150.474 -50.9887C67.6112 -50.9887 0.46148 16.179 0.461471 99.0201C0.461462 181.861 67.6361 249.029 150.474 249.029L399.987 249.029C482.85 249.029 550 181.861 550 99.0201ZM49.9494 99.0201C49.9495 43.876 95.4653 -0.994105 151.373 -0.994099L398.538 -0.994073C454.472 -0.994067 499.962 43.8761 499.962 99.0201C499.962 154.164 454.447 199.034 398.538 199.034L151.373 199.034C95.4403 199.034 49.9494 154.164 49.9494 99.0201Z" fill="white"/>
<path d="M548.126 224.028C548.126 305.719 481.676 372.162 399.987 372.162L150.474 372.162C68.7853 372.162 2.33506 305.719 2.33507 224.028C2.33508 142.337 68.7853 75.8943 150.474 75.8943L399.987 75.8943C481.676 75.8943 548.126 142.337 548.126 224.028ZM48.0759 224.028C48.0758 280.197 94.4161 325.917 151.373 325.917L398.538 325.917C455.496 325.917 501.836 280.222 501.836 224.028C501.836 167.834 455.496 122.139 398.538 122.139L151.373 122.139C94.4161 122.139 48.0759 167.834 48.0759 224.028ZM550 224.028C550 141.187 482.825 74.0195 399.987 74.0195L150.474 74.0195C67.6112 74.0195 0.46148 141.187 0.461471 224.028C0.461462 306.869 67.6361 374.037 150.474 374.037L399.987 374.037C482.85 374.037 550 306.869 550 224.028ZM49.9494 224.028C49.9495 168.884 95.4653 124.014 151.373 124.014L398.538 124.014C454.472 124.014 499.962 168.884 499.962 224.028C499.962 279.172 454.447 324.043 398.538 324.043L151.373 324.042C95.4403 324.042 49.9494 279.172 49.9494 224.028Z" fill="white"/>
<path d="M548.126 349.046C548.126 430.737 481.676 497.18 399.987 497.18L150.474 497.18C68.7853 497.18 2.33506 430.737 2.33507 349.046C2.33508 267.355 68.7853 200.912 150.474 200.912L399.987 200.912C481.676 200.912 548.126 267.355 548.126 349.046ZM48.0759 349.046C48.0758 405.215 94.4161 450.935 151.373 450.935L398.538 450.935C455.496 450.935 501.836 405.24 501.836 349.046C501.836 292.852 455.496 247.157 398.538 247.157L151.373 247.157C94.4161 247.157 48.0759 292.852 48.0759 349.046ZM550 349.046C550 266.205 482.825 199.037 399.987 199.037L150.474 199.037C67.6112 199.037 0.46148 266.205 0.461471 349.046C0.461462 431.887 67.6361 499.055 150.474 499.055L399.987 499.055C482.85 499.055 550 431.887 550 349.046ZM49.9494 349.046C49.9495 293.902 95.4653 249.032 151.373 249.032L398.538 249.032C454.472 249.032 499.962 293.902 499.962 349.046C499.962 404.19 454.447 449.06 398.538 449.06L151.373 449.06C95.4403 449.06 49.9494 404.19 49.9494 349.046Z" fill="white"/>
<path d="M548.126 -25.9912C548.126 55.6999 481.676 122.143 399.987 122.143L150.474 122.143C68.7853 122.143 2.33506 55.6999 2.33507 -25.9913C2.33508 -107.682 68.7853 -174.125 150.474 -174.125L399.987 -174.125C481.676 -174.125 548.126 -107.682 548.126 -25.9912ZM48.0759 -25.9913C48.0758 30.1776 94.4161 75.8977 151.373 75.8977L398.538 75.8977C455.496 75.8977 501.836 30.2027 501.836 -25.9912C501.836 -82.1852 455.496 -127.88 398.538 -127.88L151.373 -127.88C94.4161 -127.88 48.0759 -82.1852 48.0759 -25.9913ZM550 -25.9912C550 -108.832 482.825 -176 399.987 -176L150.474 -176C67.6112 -176 0.46148 -108.832 0.461471 -25.9913C0.461462 56.8497 67.6361 124.017 150.474 124.018L399.987 124.018C482.85 124.018 550 56.8498 550 -25.9912ZM49.9494 -25.9913C49.9495 -81.1353 95.4653 -126.005 151.373 -126.005L398.538 -126.005C454.472 -126.005 499.962 -81.1353 499.962 -25.9912C499.962 29.1528 454.447 74.0229 398.538 74.0229L151.373 74.0229C95.4403 74.0229 49.9494 29.1527 49.9494 -25.9913Z" fill="white"/>
</g>
<defs>
<clipPath id="clip0_2933_14469">
<rect width="499" height="550" fill="white" transform="translate(550) rotate(90)"/>
</clipPath>
</defs>
</svg>
