<svg width="1440" height="706" viewBox="0 0 1440 706" fill="none" xmlns="http://www.w3.org/2000/svg">
<g clip-path="url(#clip0_3318_2936)">
<g opacity="0.07">
<path d="M282.317 -59.5206C300.191 -59.5206 314.735 -44.5385 314.735 -26.0906V333.806C314.735 415.864 378.801 482.652 457.586 482.652C536.372 482.652 600.438 415.864 600.438 333.806V82.3223C600.438 63.8744 614.982 48.8923 632.856 48.8923C650.73 48.8923 665.274 63.9105 665.274 82.3223V335.105C665.274 453.302 572.12 549.44 457.586 549.44C343.053 549.44 249.898 453.302 249.898 335.105V-26.0906C249.898 -44.5385 264.443 -59.5206 282.317 -59.5206ZM282.317 -62.2282C262.971 -62.2282 247.27 -46.0547 247.27 -26.0906V335.105C247.27 454.962 341.441 552.148 457.586 552.148C573.732 552.148 667.903 454.962 667.903 335.105V82.3223C667.903 62.3582 652.202 46.1847 632.856 46.1847C613.51 46.1847 597.809 62.3582 597.809 82.3223V333.806C597.809 414.709 534.9 479.945 457.586 479.945C380.273 479.945 317.364 414.709 317.364 333.806V-26.0906C317.364 -46.0547 301.662 -62.2282 282.317 -62.2282Z" fill="#1D1D1B"/>
<path d="M808.266 -239.343C922.799 -239.343 1015.95 -143.312 1015.95 -25.2604V335.538C1015.95 353.95 1001.41 368.932 983.535 368.932C965.662 368.932 951.117 353.95 951.117 335.538V-23.2026C951.117 -105.514 887.051 -172.482 808.266 -172.482C752.401 -172.482 701.338 -138.042 678.172 -84.7558C672.774 -72.3007 660.963 -64.2862 648.101 -64.2862C636.991 -64.2862 626.688 -70.0263 620.554 -79.6654C614.491 -89.2323 613.545 -100.64 617.926 -111.002C651.01 -188.981 725.73 -239.343 808.231 -239.343M808.231 -242.05C722.015 -242.05 647.961 -188.584 615.508 -112.085C605.379 -88.2576 622.832 -61.5786 648.066 -61.5786C662.19 -61.5786 674.737 -70.3512 680.52 -83.6727C702.599 -134.431 751.525 -169.775 808.196 -169.775C885.509 -169.775 948.418 -103.998 948.418 -23.2026V335.538C948.418 355.466 964.119 371.64 983.465 371.64C1002.81 371.64 1018.51 355.466 1018.51 335.538V-25.2604C1018.51 -145.009 924.341 -242.05 808.196 -242.05H808.231Z" fill="#1D1D1B"/>
<path d="M808.266 -58.8347C826.14 -58.8347 840.684 -43.8526 840.684 -25.4408V334.022C840.684 416.334 904.75 483.302 983.536 483.302C1062.32 483.302 1126.39 416.334 1126.39 334.022V299.473C1126.39 281.061 1140.93 266.079 1158.81 266.079C1176.68 266.079 1191.22 281.061 1191.22 299.473V335.322C1191.22 453.374 1098.07 549.404 983.536 549.404C869.002 549.404 775.847 453.374 775.847 335.322V-25.4408C775.847 -43.8526 790.392 -58.8347 808.266 -58.8347ZM808.266 -61.5424C788.92 -61.5424 773.219 -45.3689 773.219 -25.4408V335.322C773.219 455.071 867.39 552.111 983.536 552.111C1099.68 552.111 1193.85 455.035 1193.85 335.322V299.473C1193.85 279.545 1178.15 263.371 1158.81 263.371C1139.46 263.371 1123.76 279.545 1123.76 299.473V334.022C1123.76 414.854 1060.85 480.594 983.536 480.594C906.222 480.594 843.313 414.817 843.313 334.022V-25.4408C843.313 -45.3689 827.612 -61.5424 808.266 -61.5424Z" fill="#1D1D1B"/>
<path d="M282.317 -239.27C396.85 -239.27 490.005 -143.24 490.005 -25.1883V335.574C490.005 353.986 475.46 368.968 457.586 368.968C439.712 368.968 425.168 353.986 425.168 335.574V-23.0944C425.168 -105.406 361.102 -172.374 282.317 -172.374C203.531 -172.374 139.465 -105.406 139.465 -23.0944V46.7981C139.465 65.2099 124.921 80.1921 107.047 80.1921C89.173 80.1921 74.6285 65.2099 74.6285 46.7981V-25.1883C74.6285 -143.24 167.783 -239.27 282.317 -239.27ZM282.317 -241.978C166.171 -241.978 72 -144.937 72 -25.1883V46.7981C72 66.7262 87.701 82.8997 107.047 82.8997C126.393 82.8997 142.094 66.7262 142.094 46.7981V-23.0944C142.094 -103.926 205.003 -169.667 282.317 -169.667C359.63 -169.667 422.539 -103.89 422.539 -23.0944V335.574C422.539 355.502 438.241 371.676 457.586 371.676C476.932 371.676 492.633 355.502 492.633 335.574V-25.1883C492.633 -144.937 398.462 -241.978 282.317 -241.978Z" fill="#1D1D1B"/>
<path d="M107.152 193.84C125.026 193.84 139.57 208.822 139.57 227.234V354.636C139.57 433.735 168.729 509.043 221.65 566.697C233.145 579.224 232.76 599.405 220.844 611.679C214.886 617.817 206.965 621.21 198.519 621.21C190.073 621.21 181.626 617.6 175.633 611.029C110.586 539.512 74.7333 446.731 74.7333 349.835V228.498C74.7333 210.266 88.0161 195.067 104.979 193.912C105.715 193.876 106.451 193.84 107.152 193.84ZM107.152 191.132C106.381 191.132 105.575 191.132 104.804 191.205C86.1937 192.468 72.1048 209.255 72.1048 228.461V349.799C72.1048 450.703 110.832 543.736 173.706 612.871C180.4 620.235 189.442 623.918 198.484 623.918C207.526 623.918 215.972 620.488 222.666 613.593C235.634 600.235 236.159 578.574 223.543 564.82C173.145 509.909 142.164 435.937 142.164 354.6V227.198C142.164 207.27 126.463 191.096 107.117 191.096L107.152 191.132Z" fill="#1D1D1B"/>
<path d="M1246.14 -239.379C1246.53 -239.379 1246.95 -239.379 1247.33 -239.379H1248.28H1248.53C1249.37 -239.379 1250.17 -239.379 1251.01 -239.306C1252.49 -239.234 1253.92 -239.162 1255.39 -239.017H1255.89L1256.69 -238.909C1285.57 -236.31 1312.59 -222.952 1332.74 -201.327C1354.3 -178.186 1366.18 -147.825 1366.18 -115.767V354.275C1366.18 373.879 1364.71 393.59 1361.76 412.868C1359.27 429.222 1345.78 441.1 1329.73 441.1H1329.62C1320.16 441.1 1311.22 436.84 1305.09 429.439C1298.85 421.93 1296.15 411.966 1297.7 402.146C1300.15 386.261 1301.41 370.016 1301.41 353.878V-115.695C1301.41 -117.319 1301.31 -119.088 1301.13 -121.074V-121.363L1301.06 -122.012C1300.89 -123.673 1300.64 -125.334 1300.29 -126.994C1300.22 -127.283 1300.18 -127.536 1300.11 -127.825V-128.041C1299.69 -129.846 1299.27 -131.435 1298.82 -132.879L1298.68 -133.276L1298.61 -133.457C1298.19 -134.792 1297.7 -136.128 1297.07 -137.608L1296.93 -137.969C1296.82 -138.222 1296.72 -138.511 1296.61 -138.763C1296.05 -140.027 1295.42 -141.363 1294.68 -142.771C1294.44 -143.276 1294.16 -143.745 1293.88 -144.251C1293.18 -145.478 1292.51 -146.598 1291.81 -147.644C1291.46 -148.15 1291.11 -148.655 1290.76 -149.125L1290.62 -149.305C1290.09 -150.063 1289.53 -150.785 1288.93 -151.543C1288.34 -152.265 1287.74 -153.024 1287.15 -153.71C1286.52 -154.432 1285.85 -155.154 1285.18 -155.84C1284.59 -156.453 1283.99 -157.031 1283.4 -157.609C1282.87 -158.078 1282.35 -158.547 1281.75 -159.089C1280.73 -159.955 1279.72 -160.785 1278.74 -161.507C1269.2 -168.692 1257.95 -172.518 1246.25 -172.518C1245.34 -172.518 1244.39 -172.518 1243.48 -172.446C1214.07 -170.93 1191.05 -145.334 1191.05 -114.106V117.738C1191.05 135.969 1177.77 151.168 1160.8 152.323C1160.07 152.359 1159.33 152.396 1158.63 152.396C1140.76 152.396 1126.21 137.413 1126.21 119.002V-115.658C1126.21 -176.887 1170.55 -229.487 1229.32 -238.043L1229.85 -238.115C1234.72 -238.801 1239.31 -239.162 1243.86 -239.27H1244.07H1244.6H1245.34C1245.51 -239.27 1245.72 -239.27 1245.9 -239.27C1246 -239.27 1246.11 -239.27 1246.25 -239.27M1246.25 -241.978C1245.93 -241.978 1245.65 -241.978 1245.34 -241.978C1245.34 -241.978 1245.27 -241.978 1245.23 -241.978C1244.85 -241.978 1244.46 -241.978 1244.11 -241.978C1244.04 -241.978 1243.93 -241.978 1243.86 -241.978C1238.99 -241.87 1234.23 -241.472 1229.53 -240.786C1229.32 -240.786 1229.14 -240.75 1228.93 -240.714C1169.39 -232.05 1123.58 -179.378 1123.58 -115.658V119.002C1123.58 138.93 1139.28 155.103 1158.63 155.103C1159.4 155.103 1160.21 155.103 1160.98 155.031C1179.59 153.767 1193.68 136.98 1193.68 117.774V-114.07C1193.68 -143.168 1215.37 -168.258 1243.62 -169.703C1244.5 -169.739 1245.41 -169.775 1246.28 -169.775C1257.85 -169.775 1268.54 -165.876 1277.23 -159.305C1278.21 -158.583 1279.16 -157.789 1280.1 -156.995C1280.63 -156.525 1281.15 -156.092 1281.68 -155.587C1282.24 -155.045 1282.84 -154.504 1283.36 -153.926C1283.99 -153.276 1284.62 -152.59 1285.25 -151.868C1285.85 -151.182 1286.41 -150.496 1286.97 -149.811C1287.53 -149.125 1288.06 -148.403 1288.58 -147.681C1288.97 -147.139 1289.36 -146.634 1289.71 -146.092C1290.41 -145.045 1291.07 -143.962 1291.67 -142.879C1291.95 -142.41 1292.19 -141.94 1292.44 -141.471C1293.11 -140.244 1293.7 -138.98 1294.3 -137.68C1294.44 -137.319 1294.61 -136.958 1294.75 -136.597C1295.28 -135.298 1295.77 -133.998 1296.19 -132.662C1296.26 -132.482 1296.33 -132.301 1296.4 -132.085C1296.86 -130.568 1297.24 -129.016 1297.59 -127.464C1297.66 -127.139 1297.73 -126.814 1297.8 -126.489C1298.12 -124.937 1298.36 -123.348 1298.54 -121.724C1298.54 -121.435 1298.61 -121.11 1298.61 -120.821C1298.75 -119.124 1298.85 -117.427 1298.85 -115.695V353.95C1298.85 370.232 1297.59 386.225 1295.17 401.821C1291.77 423.879 1308.04 443.879 1329.69 443.879C1329.69 443.879 1329.73 443.879 1329.76 443.879C1329.76 443.879 1329.8 443.879 1329.83 443.879C1347.08 443.879 1361.8 430.955 1364.46 413.374C1367.4 394.131 1368.91 374.42 1368.91 354.348V-115.695C1368.91 -149.63 1355.91 -180.425 1334.74 -203.133C1314.76 -224.613 1287.5 -238.801 1257.04 -241.545C1256.59 -241.581 1256.17 -241.617 1255.71 -241.653C1254.24 -241.761 1252.73 -241.87 1251.26 -241.942C1250.35 -241.978 1249.4 -242.014 1248.49 -242.014C1247.75 -242.014 1247.02 -242.086 1246.28 -242.086L1246.25 -241.978Z" fill="#1D1D1B"/>
<path d="M720.543 518.79C735.929 518.79 750.649 526.371 759.831 539.079L760.076 539.44L762.495 542.473L762.6 542.292C789.726 578.538 824.808 608.575 864.236 629.369C906.783 651.788 952.729 663.196 1000.81 663.196C1003.62 663.196 1006.39 663.16 1009.15 663.088C1009.75 663.088 1010.31 663.052 1010.91 663.016H1011.99L1012.34 662.943C1014.06 662.871 1015.78 662.799 1017.46 662.727C1018.2 662.691 1018.93 662.619 1019.7 662.582L1020.83 662.51H1021.21C1022.72 662.366 1024.23 662.294 1025.7 662.149C1026.57 662.077 1027.41 662.005 1028.29 661.897L1029.34 661.788C1030.85 661.644 1032.36 661.499 1033.86 661.319C1034.84 661.211 1035.83 661.066 1036.81 660.958L1037.51 660.886C1038.98 660.705 1040.45 660.525 1041.96 660.308C1043.22 660.128 1044.45 659.947 1045.71 659.73C1047.15 659.514 1048.58 659.297 1049.98 659.045C1051.25 658.828 1052.51 658.611 1053.73 658.359C1055.14 658.106 1056.54 657.853 1057.91 657.564C1059.17 657.312 1060.43 657.059 1061.73 656.77C1063.09 656.481 1064.42 656.193 1065.79 655.868C1067.09 655.579 1068.35 655.29 1069.65 654.965C1070.98 654.64 1072.27 654.315 1073.57 653.99C1074.87 653.665 1076.16 653.34 1077.43 652.979C1078.72 652.618 1079.98 652.257 1081.25 651.896L1081.63 651.788C1082.82 651.463 1083.98 651.102 1085.14 650.777C1086.19 650.452 1087.2 650.127 1088.22 649.803L1088.82 649.622L1089.52 649.405C1090.6 649.044 1091.69 648.719 1092.78 648.358C1093.65 648.07 1094.49 647.781 1095.34 647.492L1096.25 647.167L1097.16 646.842C1098.21 646.481 1099.3 646.12 1100.35 645.723C1101.01 645.47 1101.71 645.218 1102.38 644.965L1103.4 644.568L1104.34 644.207C1105.5 643.774 1106.66 643.34 1107.78 642.907L1108.69 642.546L1109.39 642.257C1115.38 639.875 1121.38 637.203 1127.23 634.423L1127.96 634.062L1129.02 633.557C1130.63 632.763 1132.24 631.968 1133.89 631.102L1134.69 630.705C1135.15 630.488 1135.57 630.272 1136.02 630.019C1137.6 629.189 1139.14 628.358 1140.72 627.492L1141.46 627.095C1141.95 626.842 1142.44 626.589 1142.89 626.3C1144.44 625.434 1145.94 624.568 1147.45 623.701L1148.05 623.34C1148.57 623.051 1149.1 622.726 1149.62 622.401C1151.13 621.499 1152.64 620.596 1154.14 619.694L1154.53 619.477C1155.13 619.116 1155.72 618.755 1156.28 618.394C1157.79 617.456 1159.26 616.517 1160.77 615.542C1161.43 615.109 1162.13 614.676 1162.8 614.206C1164.31 613.196 1165.78 612.221 1167.29 611.174L1169.18 609.874C1170.69 608.827 1172.19 607.744 1173.7 606.661L1175.17 605.578L1175.42 605.398C1176.96 604.278 1178.47 603.123 1179.97 601.968L1180.95 601.21L1181.45 600.849C1183.02 599.621 1184.6 598.394 1186.14 597.13L1186.77 596.589L1187.23 596.228C1188.88 594.892 1190.52 593.52 1192.17 592.112L1192.49 591.823L1192.73 591.607C1202.19 583.52 1211.24 574.747 1219.54 565.65L1219.68 565.541L1219.75 565.469C1223.64 561.209 1227.39 556.877 1230.93 552.545C1232.72 550.379 1234.51 548.104 1236.26 545.83C1242.5 537.743 1251.61 533.122 1261.32 533.122H1262.33C1274.92 533.122 1285.71 540.09 1291.18 551.715C1296.61 563.303 1295.17 576.805 1287.39 586.986C1281.15 595.109 1274.43 603.159 1267.31 610.957L1267.03 611.282C1266.36 612.004 1265.66 612.726 1265 613.448C1264.47 613.99 1263.98 614.495 1263.46 615.037L1262.65 615.867C1260.72 617.925 1258.83 619.947 1256.87 621.932C1256.24 622.546 1255.6 623.16 1255.01 623.773C1254.55 624.207 1254.13 624.64 1253.68 625.073C1251.29 627.42 1248.49 630.163 1245.65 632.835C1245.34 633.124 1245.02 633.412 1244.67 633.701L1243.83 634.459C1240.25 637.745 1237.03 640.597 1233.98 643.232L1233.67 643.485L1233.32 643.774C1229.57 646.987 1225.78 650.055 1221.96 653.052L1221.78 653.196L1221.64 653.377C1220.14 655.073 1218.56 656.517 1216.84 657.817C1154.53 704.93 1079.84 729.803 1000.92 729.803C893.255 729.803 791.794 681.716 722.576 597.852L720.578 595.434L718.581 597.852C685.041 638.431 642.704 671.897 596.092 694.604C548.428 717.854 496.243 729.659 440.974 729.803H440.098C403.228 729.803 368.146 724.641 335.833 714.424C324.828 710.959 316.627 702.041 313.859 690.561C311.125 679.189 314.279 667.456 322.34 659.153C328.333 652.979 336.639 649.442 345.051 649.442C348.135 649.442 351.219 649.911 354.163 650.813C382.025 659.406 410.974 663.774 440.168 663.774C488.287 663.774 534.304 652.366 576.921 629.838C617.54 608.358 653.534 577.058 680.94 539.26L681.081 539.043C690.333 526.263 705.088 518.646 720.578 518.646M720.578 515.938C704.211 515.938 688.791 523.916 678.978 537.418L678.838 537.635C624.48 612.51 537.739 661.066 440.168 661.066C410.553 661.066 381.92 656.554 354.899 648.214C351.639 647.203 348.345 646.734 345.051 646.734C335.973 646.734 327.071 650.452 320.448 657.239C301.803 676.446 309.863 709.045 335.027 717.024C368.322 727.565 403.614 732.547 440.063 732.547C440.343 732.547 440.624 732.547 440.939 732.547C496.839 732.439 549.76 720.2 597.143 697.096C644.737 673.918 686.758 640.524 720.508 599.657C787.974 681.391 888.523 732.547 1000.85 732.547C1082.23 732.547 1157.4 706.085 1218.35 660.019C1220.31 658.539 1222.03 656.915 1223.54 655.218C1223.54 655.218 1223.61 655.182 1223.61 655.146C1227.46 652.113 1231.21 649.044 1234.93 645.867C1235.14 645.687 1235.38 645.506 1235.59 645.326C1238.96 642.438 1242.25 639.514 1245.51 636.517C1246.11 635.976 1246.74 635.434 1247.33 634.856C1250.07 632.293 1252.73 629.694 1255.39 627.059C1256.45 626.012 1257.57 624.965 1258.62 623.918C1260.86 621.643 1263.07 619.297 1265.24 616.95C1266.43 615.687 1267.66 614.459 1268.85 613.159C1268.96 613.051 1269.06 612.907 1269.17 612.798C1276.21 605.037 1282.98 597.022 1289.36 588.683C1307.47 565.108 1291.42 530.451 1262.26 530.451H1261.25C1250.63 530.451 1240.71 535.613 1234.12 544.206C1232.4 546.444 1230.65 548.682 1228.83 550.848C1225.25 555.217 1221.57 559.476 1217.75 563.664C1217.72 563.7 1217.68 563.736 1217.65 563.773C1209.27 572.906 1200.37 581.535 1191.01 589.549C1190.84 589.693 1190.66 589.874 1190.45 590.018C1188.84 591.39 1187.19 592.726 1185.58 594.098C1185.23 594.387 1184.85 594.712 1184.49 595C1182.95 596.228 1181.41 597.455 1179.83 598.683C1179.34 599.044 1178.85 599.441 1178.36 599.802C1176.85 600.957 1175.35 602.076 1173.84 603.195C1173.28 603.629 1172.72 604.026 1172.16 604.423C1170.69 605.506 1169.18 606.553 1167.71 607.6C1167.08 608.033 1166.45 608.466 1165.81 608.899C1164.34 609.91 1162.87 610.921 1161.36 611.896C1160.7 612.329 1160.03 612.762 1159.37 613.196C1157.89 614.17 1156.42 615.109 1154.92 616.048C1154.21 616.481 1153.51 616.914 1152.81 617.347C1151.34 618.25 1149.83 619.152 1148.36 620.055C1147.63 620.488 1146.92 620.885 1146.19 621.318C1144.68 622.185 1143.17 623.051 1141.67 623.882C1140.93 624.279 1140.23 624.676 1139.49 625.073C1137.95 625.903 1136.41 626.734 1134.87 627.564C1134.17 627.925 1133.47 628.286 1132.77 628.647C1131.15 629.477 1129.58 630.272 1127.96 631.066C1127.37 631.355 1126.81 631.607 1126.21 631.896C1120.43 634.676 1114.51 637.275 1108.51 639.658C1107.99 639.875 1107.46 640.091 1106.9 640.308C1105.46 640.885 1103.99 641.427 1102.52 641.968C1101.5 642.33 1100.49 642.727 1099.51 643.124C1098.17 643.593 1096.81 644.062 1095.48 644.532C1094.32 644.929 1093.2 645.326 1092.04 645.723C1090.74 646.156 1089.41 646.553 1088.12 646.987C1086.89 647.384 1085.7 647.745 1084.47 648.142C1083.17 648.539 1081.91 648.9 1080.62 649.261C1079.35 649.622 1078.09 649.983 1076.83 650.344C1075.57 650.705 1074.27 651.03 1073.01 651.355C1071.71 651.68 1070.42 652.005 1069.12 652.33C1067.86 652.655 1066.6 652.943 1065.3 653.232C1063.97 653.521 1062.64 653.846 1061.27 654.135C1060.01 654.387 1058.75 654.676 1057.48 654.929C1056.12 655.218 1054.72 655.47 1053.35 655.723C1052.12 655.94 1050.86 656.192 1049.6 656.373C1048.2 656.626 1046.76 656.842 1045.36 657.059C1044.13 657.239 1042.91 657.456 1041.64 657.6C1040.17 657.817 1038.7 657.998 1037.26 658.178C1036.07 658.322 1034.84 658.503 1033.65 658.611C1032.11 658.792 1030.6 658.936 1029.06 659.081C1027.91 659.189 1026.71 659.333 1025.56 659.405C1023.94 659.55 1022.33 659.658 1020.72 659.767C1019.6 659.839 1018.51 659.947 1017.39 659.983C1015.6 660.091 1013.78 660.164 1011.99 660.236C1011.05 660.236 1010.14 660.308 1009.19 660.344C1006.46 660.416 1003.69 660.452 1000.92 660.452C903.488 660.452 816.852 612.076 762.46 537.454C762.389 537.563 762.319 537.671 762.284 537.779L762.074 537.454C752.331 523.989 736.98 516.082 720.684 516.082L720.578 515.938Z" fill="#1D1D1B"/>
<path d="M440.133 -419.128C641.582 -419.128 805.497 -250.281 805.497 -42.7693V354.348C805.497 454.818 767.506 549.224 698.499 620.091C629.526 690.959 537.773 729.948 440.133 729.948C342.492 729.948 250.739 690.922 181.767 620.091C112.759 549.188 74.7333 454.818 74.7333 354.348V-42.7693C74.7333 -250.317 238.648 -419.128 440.133 -419.128ZM440.133 663.918C605.834 663.918 740.66 525.18 740.66 354.673V-43.0942C740.66 -213.602 605.834 -352.34 440.133 -352.34C274.431 -352.34 139.57 -213.638 139.57 -43.0942V354.673C139.57 525.18 274.396 663.918 440.098 663.918M440.098 -421.835C236.895 -421.835 72.1047 -252.122 72.1047 -42.7693V354.348C72.1047 563.701 236.86 732.692 440.098 732.692C643.335 732.692 808.09 563.701 808.09 354.348V-42.7693C808.09 -252.122 643.335 -421.835 440.133 -421.835H440.098ZM440.098 661.211C275.833 661.211 142.199 523.7 142.199 354.673V-43.0942C142.199 -212.122 275.833 -349.632 440.098 -349.632C604.363 -349.632 737.997 -212.122 737.997 -43.0942V354.673C737.997 523.7 604.363 661.211 440.098 661.211Z" fill="#1D1D1B"/>
<path d="M1000.81 -419.886C1202.26 -419.886 1366.18 -251.039 1366.18 -43.5277V353.589C1366.18 561.101 1202.26 729.948 1000.81 729.948C799.364 729.948 635.449 561.101 635.449 353.589V-43.5277C635.449 -251.039 799.364 -419.886 1000.81 -419.886ZM1000.81 663.16C1166.52 663.16 1301.34 524.422 1301.34 353.914V-43.8526C1301.34 -214.36 1166.52 -353.098 1000.81 -353.098C835.111 -353.098 700.286 -214.36 700.286 -43.8526V353.914C700.286 524.422 835.111 663.16 1000.81 663.16ZM1000.81 -422.594C797.576 -422.594 632.821 -252.881 632.821 -43.5277V353.589C632.821 562.942 797.576 732.656 1000.81 732.656C1204.05 732.656 1368.81 562.942 1368.81 353.589V-43.5277C1368.81 -252.844 1204.05 -422.558 1000.81 -422.558V-422.594ZM1000.81 660.452C836.548 660.452 702.914 522.942 702.914 353.914V-43.8526C702.914 -212.88 836.548 -350.391 1000.81 -350.391C1165.08 -350.391 1298.71 -212.88 1298.71 -43.8526V353.914C1298.71 522.942 1165.08 660.452 1000.81 660.452Z" fill="#1D1D1B"/>
<path d="M1246.14 -239.379C1312.34 -239.379 1366.18 -183.927 1366.18 -115.731V425.792C1366.18 493.988 1312.34 549.44 1246.14 549.44C1179.94 549.44 1126.11 493.988 1126.11 425.792V-115.731C1126.11 -183.927 1179.94 -239.379 1246.14 -239.379ZM1246.14 -242.086C1178.4 -242.086 1123.48 -185.515 1123.48 -115.731V425.792C1123.48 495.577 1178.4 552.148 1246.14 552.148C1313.89 552.148 1368.81 495.577 1368.81 425.792V-115.731C1368.81 -185.515 1313.89 -242.086 1246.14 -242.086Z" fill="#1D1D1B"/>
<path d="M1246.14 -169.847C1275.13 -169.847 1298.71 -145.551 1298.71 -115.695V425.829C1298.71 455.685 1275.13 479.981 1246.14 479.981C1217.16 479.981 1193.57 455.685 1193.57 425.829V-115.695C1193.57 -145.551 1217.16 -169.847 1246.14 -169.847ZM1246.14 -172.555C1215.72 -172.555 1190.94 -147.031 1190.94 -115.695V425.829C1190.94 457.165 1215.72 482.688 1246.14 482.688C1276.56 482.688 1301.34 457.165 1301.34 425.829V-115.695C1301.34 -147.031 1276.56 -172.555 1246.14 -172.555Z" fill="#1D1D1B"/>
</g>
</g>
<defs>
<clipPath id="clip0_3318_2936">
<rect width="1440" height="706" fill="white"/>
</clipPath>
</defs>
</svg>
